<?xml version="1.0" encoding="utf-8"?>
<!-- Generator: Adobe Illustrator 16.0.4, SVG Export Plug-In . SVG Version: 6.00 Build 0)  -->
<!DOCTYPE svg PUBLIC "-//W3C//DTD SVG 1.1//EN" "http://www.w3.org/Graphics/SVG/1.1/DTD/svg11.dtd">
<svg version="1.1" xmlns="http://www.w3.org/2000/svg" xmlns:xlink="http://www.w3.org/1999/xlink" x="0px" y="0px" width="64px"
	 height="64px" viewBox="0 0 64 64" enable-background="new 0 0 64 64" xml:space="preserve">
<g id="Ebene_1">
	<g id="Icons">
	</g>
	<g id="Ebene_1_1_">
	</g>
</g>
<g id="Icon">
	<g>
		<g>
			<linearGradient id="SVGID_1_" gradientUnits="userSpaceOnUse" x1="9.1416" y1="32.9668" x2="55.1436" y2="32.9668">
				<stop  offset="0" style="stop-color:#E3DDDB"/>
				<stop  offset="1" style="stop-color:#E8E3E1"/>
			</linearGradient>
			<path fill="url(#SVGID_1_)" d="M33.556,6.965c-0.777-0.777-2.051-0.777-2.828,0L10.556,27.137
				c-0.777,0.777-1.414,2.314-1.414,3.414v27c0,1.1,0.9,2,2,2h42.002c1.1,0,2-0.9,2-2v-27c0-1.1-0.637-2.637-1.414-3.414
				L33.556,6.965z"/>
			<polygon opacity="0.7" fill="#B9ADA7" points="55.144,34.551 32.142,11.551 9.142,34.551 9.142,28.551 32.142,5.551 
				55.144,28.551 			"/>
			<polygon fill="#E20374" points="32.142,3.551 2.142,33.551 5.142,36.551 32.142,9.551 59.144,36.551 62.142,33.551 			"/>
			<polygon opacity="0.2" fill="#FFFFFF" points="32.142,9.551 59.144,36.551 62.142,33.551 32.142,3.551 			"/>
		</g>
	</g>
	<linearGradient id="SVGID_2_" gradientUnits="userSpaceOnUse" x1="26.4248" y1="49.9785" x2="38.708" y2="49.9785">
		<stop  offset="0" style="stop-color:#4B4B4B"/>
		<stop  offset="1" style="stop-color:#7C7C7C"/>
	</linearGradient>
	<rect x="26.425" y="40.461" opacity="0.7" fill="url(#SVGID_2_)" width="12.283" height="19.035"/>
</g>
</svg>
