<?xml version="1.0" encoding="utf-8"?>
<!-- Generator: Adobe Illustrator 16.0.4, SVG Export Plug-In . SVG Version: 6.00 Build 0)  -->
<!DOCTYPE svg PUBLIC "-//W3C//DTD SVG 1.1//EN" "http://www.w3.org/Graphics/SVG/1.1/DTD/svg11.dtd">
<svg version="1.1" xmlns="http://www.w3.org/2000/svg" xmlns:xlink="http://www.w3.org/1999/xlink" x="0px" y="0px" width="64px"
	 height="64px" viewBox="0 0 64 64" enable-background="new 0 0 64 64" xml:space="preserve">
<g id="Ebene_1">
	<g id="Icons">
	</g>
	<g id="Ebene_1_1_">
	</g>
</g>
<g id="Icon">
	<linearGradient id="SVGID_1_" gradientUnits="userSpaceOnUse" x1="3.0205" y1="36.4043" x2="54.3428" y2="36.4043">
		<stop  offset="0" style="stop-color:#B9ADA7"/>
		<stop  offset="1" style="stop-color:#E3DDDB"/>
	</linearGradient>
	<rect x="3.021" y="19.7" opacity="0.5" fill="url(#SVGID_1_)" width="51.322" height="33.409"/>
	<path fill="#12100B" d="M46.29,12.136h5.396c0.498,0,0.9-0.402,0.9-0.898c0-0.497-0.402-0.9-0.9-0.9H46.29
		c-0.497,0-0.899,0.403-0.899,0.9C45.391,11.733,45.793,12.136,46.29,12.136L46.29,12.136z"/>
	<linearGradient id="SVGID_2_" gradientUnits="userSpaceOnUse" x1="39.4414" y1="32.6113" x2="58.7148" y2="32.6113">
		<stop  offset="0" style="stop-color:#E3DDDB"/>
		<stop  offset="1" style="stop-color:#E8E3E1"/>
	</linearGradient>
	<rect x="39.441" y="7.696" fill="url(#SVGID_2_)" width="19.273" height="49.831"/>
	<linearGradient id="SVGID_3_" gradientUnits="userSpaceOnUse" x1="37.2959" y1="32.8086" x2="60.6807" y2="32.8086">
		<stop  offset="0" style="stop-color:#B9ADA7"/>
		<stop  offset="1" style="stop-color:#E3DDDB"/>
	</linearGradient>
	<path fill="url(#SVGID_3_)" d="M57.982,36.404H39.993V8.521h17.989V36.404L57.982,36.404z M58.882,5.825H39.095
		c-0.989,0-1.799,0.81-1.799,1.798v50.368c0,0.988,0.81,1.8,1.799,1.8h19.787c0.989,0,1.799-0.812,1.799-1.8V7.623
		C60.681,6.635,59.871,5.825,58.882,5.825L58.882,5.825z"/>
	<rect x="20.134" y="23.078" fill="#FFFFFF" width="12.545" height="16.829"/>
	<rect x="20.134" y="41.436" fill="#FFFFFF" width="12.545" height="7.347"/>
	<path fill="#E20374" d="M28.384,27.885c0,1.056-0.854,1.911-1.909,1.911l0,0c-1.055,0-1.909-0.855-1.909-1.911l0,0
		c0-1.053,0.854-1.908,1.909-1.908l0,0C27.53,25.977,28.384,26.832,28.384,27.885L28.384,27.885z"/>
	<path fill="#E20374" d="M28.384,34.331c0,1.055-0.854,1.909-1.909,1.909l0,0c-1.055,0-1.909-0.854-1.909-1.909l0,0
		c0-1.054,0.854-1.909,1.909-1.909l0,0C27.53,32.422,28.384,33.277,28.384,34.331L28.384,34.331z"/>
	<linearGradient id="SVGID_4_" gradientUnits="userSpaceOnUse" x1="48.9883" y1="36.4043" x2="48.9883" y2="8.2188">
		<stop  offset="0" style="stop-color:#EDEDED"/>
		<stop  offset="1" style="stop-color:#FFFFFF"/>
	</linearGradient>
	<rect x="39.993" y="8.218" fill="url(#SVGID_4_)" width="17.989" height="28.186"/>
	<linearGradient id="SVGID_5_" gradientUnits="userSpaceOnUse" x1="39.9932" y1="19.0996" x2="57.9824" y2="19.0996">
		<stop  offset="0" style="stop-color:#DCD6D3"/>
		<stop  offset="0.3881" style="stop-color:#E8E3E1"/>
		<stop  offset="1" style="stop-color:#E8E3E1"/>
	</linearGradient>
	<polygon fill="url(#SVGID_5_)" points="57.982,13.302 57.982,8.218 39.993,8.218 39.993,29.981 	"/>
	<rect x="39.993" y="37.983" fill="#E20374" width="17.967" height="5.644"/>
	<linearGradient id="SVGID_6_" gradientUnits="userSpaceOnUse" x1="39.9932" y1="55.0234" x2="47.2031" y2="55.0234">
		<stop  offset="0" style="stop-color:#EDEDED"/>
		<stop  offset="1" style="stop-color:#FFFFFF"/>
	</linearGradient>
	<path fill="url(#SVGID_6_)" d="M47.203,57.379c0,0.259-0.213,0.47-0.472,0.47h-6.268c-0.259,0-0.471-0.211-0.471-0.47v-4.711
		c0-0.259,0.212-0.471,0.471-0.471h6.268c0.259,0,0.472,0.212,0.472,0.471V57.379z"/>
	<linearGradient id="SVGID_7_" gradientUnits="userSpaceOnUse" x1="39.9932" y1="47.9355" x2="47.2031" y2="47.9355">
		<stop  offset="0" style="stop-color:#EDEDED"/>
		<stop  offset="1" style="stop-color:#FFFFFF"/>
	</linearGradient>
	<path fill="url(#SVGID_7_)" d="M47.203,50.291c0,0.26-0.213,0.472-0.472,0.472h-6.268c-0.259,0-0.471-0.212-0.471-0.472V45.58
		c0-0.261,0.212-0.472,0.471-0.472h6.268c0.259,0,0.472,0.211,0.472,0.472V50.291z"/>
	<linearGradient id="SVGID_8_" gradientUnits="userSpaceOnUse" x1="50.7383" y1="55.0234" x2="57.9473" y2="55.0234">
		<stop  offset="0" style="stop-color:#EDEDED"/>
		<stop  offset="1" style="stop-color:#FFFFFF"/>
	</linearGradient>
	<path fill="url(#SVGID_8_)" d="M57.947,57.379c0,0.259-0.213,0.47-0.471,0.47h-6.269c-0.259,0-0.47-0.211-0.47-0.47v-4.711
		c0-0.259,0.211-0.471,0.47-0.471h6.269c0.258,0,0.471,0.212,0.471,0.471V57.379z"/>
	<linearGradient id="SVGID_9_" gradientUnits="userSpaceOnUse" x1="50.7383" y1="47.9355" x2="57.9473" y2="47.9355">
		<stop  offset="0" style="stop-color:#EDEDED"/>
		<stop  offset="1" style="stop-color:#FFFFFF"/>
	</linearGradient>
	<path fill="url(#SVGID_9_)" d="M57.947,50.291c0,0.26-0.213,0.472-0.471,0.472h-6.269c-0.259,0-0.47-0.212-0.47-0.472V45.58
		c0-0.261,0.211-0.472,0.47-0.472h6.269c0.258,0,0.471,0.211,0.471,0.472V50.291z"/>
</g>
</svg>
